<svg id="logo" class="logo" fill="var(--logo--fill, currentColor)" width="100%" height="100%" viewBox="0 0 200 90" xmlns="http://www.w3.org/2000/svg">
<path d="M21.7163 11.9999C25.0016 12.0586 27.8763 12.8212 30.3403 14.2879C32.8043 15.7546 34.6816 17.7199 35.9723 20.1839C37.3216 22.6479 37.9963 25.4346 37.9963 28.5439C37.9963 30.8319 37.5563 33.0026 36.6763 35.0559C35.8549 37.0506 34.7109 38.8399 33.2443 40.4239C35.3563 42.0079 36.9989 43.9732 38.1723 46.3199C39.4043 48.6666 40.0203 51.2479 40.0203 54.0639C40.0203 57.0559 39.2869 59.8132 37.8203 62.3359C36.3536 64.8586 34.3883 66.8826 31.9243 68.4079C29.4603 69.8746 26.7323 70.6079 23.7403 70.6079H4.55625V11.9999H21.7163ZM12.3003 19.9199V37.3439H21.7163C24.1216 37.3439 26.1456 36.4932 27.7883 34.7919C29.4309 33.0906 30.2523 31.0079 30.2523 28.5439C30.2523 26.0799 29.4309 24.0266 27.7883 22.3839C26.2043 20.7412 24.1803 19.9199 21.7163 19.9199H12.3003ZM12.3003 45.2639V62.6879H23.7403C26.1456 62.6879 28.1696 61.8666 29.8123 60.2239C31.4549 58.5226 32.2763 56.4692 32.2763 54.0639C32.2763 51.5999 31.4549 49.5172 29.8123 47.8159C28.1696 46.1146 26.1456 45.2639 23.7403 45.2639H12.3003ZM69.3387 71.0479C66.3467 71.0479 63.5014 70.4612 60.8027 69.2879C58.104 68.1146 55.728 66.5012 53.6747 64.4479C51.6214 62.3946 50.008 60.0186 48.8347 57.3199C47.6614 54.6212 47.0747 51.7759 47.0747 48.7839C47.0747 45.7332 47.6614 42.8292 48.8347 40.0719C50.008 37.3146 51.6214 34.9092 53.6747 32.8559C55.728 30.8026 58.104 29.2186 60.8027 28.1039C63.5014 26.9306 66.3467 26.3439 69.3387 26.3439C72.3894 26.3439 75.2934 26.9306 78.0507 28.1039C80.808 29.2186 83.2134 30.8026 85.2667 32.8559C87.32 34.9092 88.904 37.3146 90.0187 40.0719C91.192 42.8292 91.7787 45.7332 91.7787 48.7839C91.7787 51.7759 91.192 54.6212 90.0187 57.3199C88.904 60.0186 87.32 62.3946 85.2667 64.4479C83.2134 66.5012 80.808 68.1146 78.0507 69.2879C75.2934 70.4612 72.3894 71.0479 69.3387 71.0479ZM69.3387 34.1759C65.408 34.1759 62.0347 35.5839 59.2187 38.3999C57.8694 39.7492 56.8134 41.3332 56.0507 43.1519C55.288 44.9706 54.9067 46.8479 54.9067 48.7839C54.9067 50.7199 55.288 52.5679 56.0507 54.3279C56.8134 56.0879 57.8694 57.6426 59.2187 58.9919C60.568 60.3412 62.0934 61.3972 63.7947 62.1599C65.5547 62.9226 67.4027 63.3039 69.3387 63.3039C71.2747 63.3039 73.152 62.9226 74.9707 62.1599C76.7894 61.3972 78.344 60.3412 79.6347 58.9919C80.9254 57.6426 81.952 56.0879 82.7147 54.3279C83.4774 52.5679 83.8587 50.7199 83.8587 48.7839C83.8587 46.8479 83.4774 44.9706 82.7147 43.1519C81.952 41.3332 80.9254 39.7492 79.6347 38.3999C78.344 37.0506 76.7894 36.0239 74.9707 35.3199C73.2107 34.5572 71.3334 34.1759 69.3387 34.1759ZM119.354 71.0479C116.362 71.0479 113.517 70.4612 110.818 69.2879C108.12 68.1146 105.744 66.5012 103.69 64.4479C101.637 62.3946 100.024 60.0186 98.8503 57.3199C97.677 54.6212 97.0903 51.7759 97.0903 48.7839C97.0903 45.7332 97.677 42.8292 98.8503 40.0719C100.024 37.3146 101.637 34.9092 103.69 32.8559C105.744 30.8026 108.12 29.2186 110.818 28.1039C113.517 26.9306 116.362 26.3439 119.354 26.3439C122.405 26.3439 125.309 26.9306 128.066 28.1039C130.824 29.2186 133.229 30.8026 135.282 32.8559C137.336 34.9092 138.92 37.3146 140.034 40.0719C141.208 42.8292 141.794 45.7332 141.794 48.7839C141.794 51.7759 141.208 54.6212 140.034 57.3199C138.92 60.0186 137.336 62.3946 135.282 64.4479C133.229 66.5012 130.824 68.1146 128.066 69.2879C125.309 70.4612 122.405 71.0479 119.354 71.0479ZM119.354 34.1759C115.424 34.1759 112.05 35.5839 109.234 38.3999C107.885 39.7492 106.829 41.3332 106.066 43.1519C105.304 44.9706 104.922 46.8479 104.922 48.7839C104.922 50.7199 105.304 52.5679 106.066 54.3279C106.829 56.0879 107.885 57.6426 109.234 58.9919C110.584 60.3412 112.109 61.3972 113.81 62.1599C115.57 62.9226 117.418 63.3039 119.354 63.3039C121.29 63.3039 123.168 62.9226 124.986 62.1599C126.805 61.3972 128.36 60.3412 129.65 58.9919C130.941 57.6426 131.968 56.0879 132.73 54.3279C133.493 52.5679 133.874 50.7199 133.874 48.7839C133.874 46.8479 133.493 44.9706 132.73 43.1519C131.968 41.3332 130.941 39.7492 129.65 38.3999C128.36 37.0506 126.805 36.0239 124.986 35.3199C123.226 34.5572 121.349 34.1759 119.354 34.1759ZM170.825 70.6079L157.449 54.3279V70.6079H149.705V12.0879H157.449V37.3439L169.417 26.0799H180.945L160.089 45.4399L181.033 70.6079H170.825ZM190.362 20.2719C189.247 20.2719 188.279 19.8906 187.458 19.1279C186.695 18.3066 186.314 17.3386 186.314 16.2239C186.314 15.1092 186.695 14.1706 187.458 13.4079C188.279 12.5866 189.247 12.1759 190.362 12.1759C191.477 12.1759 192.415 12.5866 193.178 13.4079C193.999 14.1706 194.41 15.1092 194.41 16.2239C194.41 17.3386 193.999 18.3066 193.178 19.1279C192.415 19.8906 191.477 20.2719 190.362 20.2719ZM186.754 70.6079V26.6079H194.146V70.6079H186.754Z"/>
<circle cx="119.5" cy="43.1079" r="4.5"/>
<path d="M115 57.6079L117.172 41.6079H122.138L124 57.6079H115Z"/>
</svg>
